<svg preserveAspectRatio="none" width="100%" height="100%" overflow="visible" style="display: block;" viewBox="0 0 20 20" fill="none" xmlns="http://www.w3.org/2000/svg">
<g id="LockIcon">
<path id="Vector" d="M15 9.16667H5C3.61929 9.16667 2.5 10.286 2.5 11.6667V17.5C2.5 18.8807 3.61929 20 5 20H15C16.3807 20 17.5 18.8807 17.5 17.5V11.6667C17.5 10.286 16.3807 9.16667 15 9.16667Z" fill="var(--fill-0, #6E6E8F)"/>
<path id="Vector_2" d="M5.83333 9.16667V6.66667C5.83333 4.33333 7.66667 2.5 10 2.5C12.3333 2.5 14.1667 4.33333 14.1667 6.66667V9.16667" stroke="var(--stroke-0, #6E6E8F)" stroke-width="2.5" stroke-linecap="round"/>
<path id="Vector_3" d="M10 16.4167C11.0125 16.4167 11.8333 15.5959 11.8333 14.5833C11.8333 13.5708 11.0125 12.75 10 12.75C8.98748 12.75 8.16667 13.5708 8.16667 14.5833C8.16667 15.5959 8.98748 16.4167 10 16.4167Z" fill="var(--fill-0, white)"/>
</g>
</svg>
