<svg preserveAspectRatio="none" width="100%" height="100%" overflow="visible" style="display: block;" viewBox="0 0 96 96" fill="none" xmlns="http://www.w3.org/2000/svg">
<g id="Icon" opacity="0.42">
<path id="Vector" d="M48 88C48 88 8 61.3333 8 34.6667C8 18.6667 18.6667 10.6667 32 10.6667C40 10.6667 45.3333 16 48 21.3333C50.6667 16 56 10.6667 64 10.6667C77.3333 10.6667 88 18.6667 88 34.6667C88 61.3333 48 88 48 88Z" fill="var(--fill-0, #FF6B9D)"/>
<path id="Vector_2" d="M48 72C48 72 24 56 24 40C24 32 29.3333 26.6667 37.3333 26.6667C42.6667 26.6667 45.3333 30.6667 48 34.6667C50.6667 30.6667 53.3333 26.6667 58.6667 26.6667C66.6667 26.6667 72 32 72 40C72 56 48 72 48 72Z" fill="var(--fill-0, #FF9EC0)"/>
</g>
</svg>
