<svg preserveAspectRatio="none" width="100%" height="100%" overflow="visible" style="display: block;" viewBox="0 0 96 96" fill="none" xmlns="http://www.w3.org/2000/svg">
<g id="Icon" opacity="0.42">
<path id="Vector" d="M61.3333 77.3333H34.6667C31.7211 77.3333 29.3333 79.7211 29.3333 82.6667C29.3333 85.6122 31.7211 88 34.6667 88H61.3333C64.2789 88 66.6667 85.6122 66.6667 82.6667C66.6667 79.7211 64.2789 77.3333 61.3333 77.3333Z" fill="var(--fill-0, #FF8C42)"/>
<path id="Vector_2" d="M58.6667 64H37.3333V80H58.6667V64Z" fill="var(--fill-0, #FFC93C)"/>
<path id="Vector_3" d="M21.3333 16H74.6667L69.3333 56C69.3333 66.6667 58.6667 72 48 72C37.3333 72 26.6667 66.6667 26.6667 56L21.3333 16Z" fill="var(--fill-0, #FFC93C)"/>
<path id="Vector_4" d="M21.3333 21.3333C13.3333 24 8 32 8 40C8 48 13.3333 53.3333 21.3333 56L26.6667 37.3333L21.3333 21.3333Z" fill="var(--fill-0, #FFD966)"/>
<path id="Vector_5" d="M74.6667 21.3333C82.6667 24 88 32 88 40C88 48 82.6667 53.3333 74.6667 56L69.3333 37.3333L74.6667 21.3333Z" fill="var(--fill-0, #FFD966)"/>
<path id="Vector_6" opacity="0.6" d="M32 37.3333H64" stroke="var(--stroke-0, white)" stroke-width="2" stroke-linecap="round"/>
<path id="Vector_7" opacity="0.4" d="M34.6667 50.6667H61.3333" stroke="var(--stroke-0, white)" stroke-width="1.5" stroke-linecap="round"/>
</g>
</svg>
