<svg preserveAspectRatio="none" width="100%" height="100%" overflow="visible" style="display: block;" viewBox="0 0 36 36" fill="none" xmlns="http://www.w3.org/2000/svg">
<g id="Icon">
<path id="Vector" d="M10 17C13.866 17 17 13.866 17 10C17 6.13401 13.866 3 10 3C6.13401 3 3 6.13401 3 10C3 13.866 6.13401 17 10 17Z" fill="var(--fill-0, #4FC3F7)"/>
<path id="Vector_2" d="M30 3H22C20.3431 3 19 4.34315 19 6V14C19 15.6569 20.3431 17 22 17H30C31.6569 17 33 15.6569 33 14V6C33 4.34315 31.6569 3 30 3Z" fill="var(--fill-0, #9B6BE3)"/>
<path id="Vector_3" d="M4 34H16L10 22L4 34Z" fill="var(--fill-0, #6BCB77)"/>
<path id="Vector_4" d="M20 34H34L27 22L20 34Z" fill="var(--fill-0, #FF8C42)"/>
</g>
</svg>
