<svg preserveAspectRatio="none" width="100%" height="100%" overflow="visible" style="display: block;" viewBox="0 0 36 36" fill="none" xmlns="http://www.w3.org/2000/svg">
<g id="Icon">
<path id="Vector" d="M26 3H10C6.13401 3 3 6.13401 3 10V26C3 29.866 6.13401 33 10 33H26C29.866 33 33 29.866 33 26V10C33 6.13401 29.866 3 26 3Z" fill="var(--fill-0, #6BCB77)"/>
<path id="Vector_2" d="M10 13.5C11.933 13.5 13.5 11.933 13.5 10C13.5 8.067 11.933 6.5 10 6.5C8.067 6.5 6.5 8.067 6.5 10C6.5 11.933 8.067 13.5 10 13.5Z" fill="var(--fill-0, white)"/>
<path id="Vector_3" d="M18 13.5C19.933 13.5 21.5 11.933 21.5 10C21.5 8.067 19.933 6.5 18 6.5C16.067 6.5 14.5 8.067 14.5 10C14.5 11.933 16.067 13.5 18 13.5Z" fill="var(--fill-0, white)"/>
<path id="Vector_4" opacity="0.35" d="M26 13.5C27.933 13.5 29.5 11.933 29.5 10C29.5 8.067 27.933 6.5 26 6.5C24.067 6.5 22.5 8.067 22.5 10C22.5 11.933 24.067 13.5 26 13.5Z" fill="var(--fill-0, white)"/>
<path id="Vector_5" d="M10 21.5C11.933 21.5 13.5 19.933 13.5 18C13.5 16.067 11.933 14.5 10 14.5C8.067 14.5 6.5 16.067 6.5 18C6.5 19.933 8.067 21.5 10 21.5Z" fill="var(--fill-0, white)"/>
<path id="Vector_6" opacity="0.35" d="M18 21.5C19.933 21.5 21.5 19.933 21.5 18C21.5 16.067 19.933 14.5 18 14.5C16.067 14.5 14.5 16.067 14.5 18C14.5 19.933 16.067 21.5 18 21.5Z" fill="var(--fill-0, white)"/>
<path id="Vector_7" opacity="0.35" d="M26 21.5C27.933 21.5 29.5 19.933 29.5 18C29.5 16.067 27.933 14.5 26 14.5C24.067 14.5 22.5 16.067 22.5 18C22.5 19.933 24.067 21.5 26 21.5Z" fill="var(--fill-0, white)"/>
<path id="Vector_8" d="M10 29.5C11.933 29.5 13.5 27.933 13.5 26C13.5 24.067 11.933 22.5 10 22.5C8.067 22.5 6.5 24.067 6.5 26C6.5 27.933 8.067 29.5 10 29.5Z" fill="var(--fill-0, white)"/>
<path id="Vector_9" d="M18 29.5C19.933 29.5 21.5 27.933 21.5 26C21.5 24.067 19.933 22.5 18 22.5C16.067 22.5 14.5 24.067 14.5 26C14.5 27.933 16.067 29.5 18 29.5Z" fill="var(--fill-0, white)"/>
<path id="Vector_10" d="M26 29.5C27.933 29.5 29.5 27.933 29.5 26C29.5 24.067 27.933 22.5 26 22.5C24.067 22.5 22.5 24.067 22.5 26C22.5 27.933 24.067 29.5 26 29.5Z" fill="var(--fill-0, white)"/>
</g>
</svg>
