<svg preserveAspectRatio="none" width="100%" height="100%" overflow="visible" style="display: block;" viewBox="0 0 96 96" fill="none" xmlns="http://www.w3.org/2000/svg">
<g id="Icon" opacity="0.42">
<path id="Vector" d="M48 88C61.2548 88 72 79.6426 72 69.3333C72 59.024 61.2548 50.6667 48 50.6667C34.7452 50.6667 24 59.024 24 69.3333C24 79.6426 34.7452 88 48 88Z" fill="var(--fill-0, #FF8C42)"/>
<path id="Vector_2" d="M24 54.6667C30.6274 54.6667 36 49.2941 36 42.6667C36 36.0392 30.6274 30.6667 24 30.6667C17.3726 30.6667 12 36.0392 12 42.6667C12 49.2941 17.3726 54.6667 24 54.6667Z" fill="var(--fill-0, #FF8C42)"/>
<path id="Vector_3" d="M40 36C45.1547 36 49.3333 31.8213 49.3333 26.6667C49.3333 21.512 45.1547 17.3333 40 17.3333C34.8453 17.3333 30.6667 21.512 30.6667 26.6667C30.6667 31.8213 34.8453 36 40 36Z" fill="var(--fill-0, #FF8C42)"/>
<path id="Vector_4" d="M56 36C61.1547 36 65.3333 31.8213 65.3333 26.6667C65.3333 21.512 61.1547 17.3333 56 17.3333C50.8453 17.3333 46.6667 21.512 46.6667 26.6667C46.6667 31.8213 50.8453 36 56 36Z" fill="var(--fill-0, #FF8C42)"/>
<path id="Vector_5" d="M72 54.6667C78.6274 54.6667 84 49.2941 84 42.6667C84 36.0392 78.6274 30.6667 72 30.6667C65.3726 30.6667 60 36.0392 60 42.6667C60 49.2941 65.3726 54.6667 72 54.6667Z" fill="var(--fill-0, #FF8C42)"/>
</g>
</svg>
