<svg preserveAspectRatio="none" width="100%" height="100%" overflow="visible" style="display: block;" viewBox="0 0 96 96" fill="none" xmlns="http://www.w3.org/2000/svg">
<g id="Icon" opacity="0.42">
<path id="Vector" d="M48 5.33333L56 32H85.3333L62.6667 49.3333L70.6667 77.3333L48 61.3333L25.3333 77.3333L33.3333 49.3333L10.6667 32H40L48 5.33333Z" fill="var(--fill-0, #FFC93C)" stroke="var(--stroke-0, #F0A500)" stroke-linejoin="round"/>
<path id="Vector_2" opacity="0.5" d="M48 56C53.891 56 58.6667 51.2244 58.6667 45.3333C58.6667 39.4423 53.891 34.6667 48 34.6667C42.109 34.6667 37.3333 39.4423 37.3333 45.3333C37.3333 51.2244 42.109 56 48 56Z" fill="var(--fill-0, white)"/>
<path id="Vector_3" opacity="0.6" d="M21.3333 22.6667C25.0152 22.6667 28 19.6819 28 16C28 12.3181 25.0152 9.33333 21.3333 9.33333C17.6514 9.33333 14.6667 12.3181 14.6667 16C14.6667 19.6819 17.6514 22.6667 21.3333 22.6667Z" fill="var(--fill-0, #FFC93C)"/>
<path id="Vector_4" opacity="0.5" d="M74.6667 16C77.6122 16 80 13.6122 80 10.6667C80 7.72115 77.6122 5.33333 74.6667 5.33333C71.7212 5.33333 69.3333 7.72115 69.3333 10.6667C69.3333 13.6122 71.7212 16 74.6667 16Z" fill="var(--fill-0, #FFC93C)"/>
</g>
</svg>
