<svg preserveAspectRatio="none" width="100%" height="100%" overflow="visible" style="display: block;" viewBox="0 0 100 100" fill="none" xmlns="http://www.w3.org/2000/svg">
<g id="SVG">
<path id="Vector" opacity="0.6" d="M50 95C73.4721 95 92.5 75.9721 92.5 52.5C92.5 29.0279 73.4721 10 50 10C26.5279 10 7.5 29.0279 7.5 52.5C7.5 75.9721 26.5279 95 50 95Z" fill="var(--fill-0, #FFE3CF)"/>
<path id="Vector_2" d="M22.5 22.5L27.5 10L37.5 27.5L22.5 22.5Z" fill="var(--fill-0, #FF8C42)"/>
<path id="Vector_3" d="M77.5 22.5L72.5 10L62.5 27.5L77.5 22.5Z" fill="var(--fill-0, #FF8C42)"/>
<path id="Vector_4" opacity="0.5" d="M27.5 17.5L30 22.5L32.5 17.5H27.5Z" fill="var(--fill-0, white)"/>
<path id="Vector_5" d="M50 87.5C67.9493 87.5 82.5 72.9493 82.5 55C82.5 37.0507 67.9493 22.5 50 22.5C32.0507 22.5 17.5 37.0507 17.5 55C17.5 72.9493 32.0507 87.5 50 87.5Z" fill="var(--fill-0, #FF8C42)"/>
<path id="Vector_6" d="M50 87.5C67.9493 87.5 82.5 72.9493 82.5 55C82.5 37.0507 67.9493 22.5 50 22.5C32.0507 22.5 17.5 37.0507 17.5 55C17.5 72.9493 32.0507 87.5 50 87.5Z" fill="url(#paint0_radial_0_4)"/>
<path id="Vector_7" opacity="0.35" d="M32.5 65C35.2614 65 37.5 62.7614 37.5 60C37.5 57.2386 35.2614 55 32.5 55C29.7386 55 27.5 57.2386 27.5 60C27.5 62.7614 29.7386 65 32.5 65Z" fill="var(--fill-0, #CC6A20)"/>
<path id="Vector_8" opacity="0.35" d="M67.5 65C70.2614 65 72.5 62.7614 72.5 60C72.5 57.2386 70.2614 55 67.5 55C64.7386 55 62.5 57.2386 62.5 60C62.5 62.7614 64.7386 65 67.5 65Z" fill="var(--fill-0, #CC6A20)"/>
<path id="Vector_9" d="M41.25 50.625C43.6662 50.625 45.625 48.1066 45.625 45C45.625 41.8934 43.6662 39.375 41.25 39.375C38.8338 39.375 36.875 41.8934 36.875 45C36.875 48.1066 38.8338 50.625 41.25 50.625Z" fill="var(--fill-0, white)"/>
<path id="Vector_10" d="M58.75 50.625C61.1662 50.625 63.125 48.1066 63.125 45C63.125 41.8934 61.1662 39.375 58.75 39.375C56.3338 39.375 54.375 41.8934 54.375 45C54.375 48.1066 56.3338 50.625 58.75 50.625Z" fill="var(--fill-0, white)"/>
<path id="Vector_11" d="M41.875 48.75C43.2557 48.75 44.375 47.6307 44.375 46.25C44.375 44.8693 43.2557 43.75 41.875 43.75C40.4943 43.75 39.375 44.8693 39.375 46.25C39.375 47.6307 40.4943 48.75 41.875 48.75Z" fill="var(--fill-0, #2C2C54)"/>
<path id="Vector_12" d="M59.375 48.75C60.7557 48.75 61.875 47.6307 61.875 46.25C61.875 44.8693 60.7557 43.75 59.375 43.75C57.9943 43.75 56.875 44.8693 56.875 46.25C56.875 47.6307 57.9943 48.75 59.375 48.75Z" fill="var(--fill-0, #2C2C54)"/>
<path id="Vector_13" d="M42.875 45.375C43.4273 45.375 43.875 44.9273 43.875 44.375C43.875 43.8227 43.4273 43.375 42.875 43.375C42.3227 43.375 41.875 43.8227 41.875 44.375C41.875 44.9273 42.3227 45.375 42.875 45.375Z" fill="var(--fill-0, white)"/>
<path id="Vector_14" d="M60.375 45.375C60.9273 45.375 61.375 44.9273 61.375 44.375C61.375 43.8227 60.9273 43.375 60.375 43.375C59.8227 43.375 59.375 43.8227 59.375 44.375C59.375 44.9273 59.8227 45.375 60.375 45.375Z" fill="var(--fill-0, white)"/>
<path id="Vector_15" d="M40 62.5C46.6667 69.1667 53.3333 69.1667 60 62.5" stroke="var(--stroke-0, #2C2C54)" stroke-width="2.42" stroke-linecap="round" stroke-linejoin="round"/>
</g>
<defs>
<radialGradient id="paint0_radial_0_4" cx="0" cy="0" r="1" gradientUnits="userSpaceOnUse" gradientTransform="translate(50 48.5) scale(45.5)">
<stop stop-color="white" stop-opacity="0.35"/>
<stop offset="1" stop-color="#FF8C42" stop-opacity="0"/>
</radialGradient>
</defs>
</svg>
